<svg width="128" height="61" viewBox="0 0 128 61" fill="none" xmlns="http://www.w3.org/2000/svg">
<g clip-path="url(#clip0_10_6)">
<path fill-rule="evenodd" clip-rule="evenodd" d="M38.965 1.64752C37.0661 1.34034 35.1672 1.06109 32.7097 1.11694C30.2523 1.14486 27.2364 1.56375 24.36 2.28981C21.5116 3.04379 18.8029 4.10496 16.2617 5.72463C13.7204 7.37224 11.3189 9.57834 9.30823 11.8962C7.2976 14.2419 5.65 16.6714 4.67261 19.0451C3.66729 21.4187 3.33219 23.7365 3.19256 26.2498C3.05293 28.791 3.10878 31.5557 3.61144 33.9293C4.08617 36.2751 5.00771 38.2298 5.9851 40.045C6.99042 41.8601 8.05158 43.5636 9.36408 45.1553C10.6486 46.7471 12.2125 48.2271 13.7484 49.7072C12.38 50.7963 11.0117 51.8854 9.64333 52.9745C9.30823 52.6394 8.97312 52.3042 7.85611 50.908C6.73909 49.5117 4.81223 47.0543 3.38804 44.4293C1.99177 41.7764 1.07023 38.9559 0.539644 36.1634C0.0369858 33.3429 -0.102641 30.5783 0.0928367 27.8136C0.288315 25.049 0.790972 22.3123 1.60081 19.8828C2.41065 17.4533 3.55559 15.3868 4.78431 13.5438C6.04095 11.6728 7.38137 10.0531 8.88935 8.40548C10.4252 6.75788 12.1008 5.11028 14.279 3.79778C16.4851 2.48529 19.1659 1.47997 21.9305 0.893536C24.6951 0.279176 27.5156 0.0557729 29.7776 -7.79708e-05C32.0675 -0.0280034 33.7988 0.111624 35.223 0.418803C36.6751 0.725983 37.8201 1.20072 38.965 1.64752Z" fill="#C0AE7C"/>
<path fill-rule="evenodd" clip-rule="evenodd" d="M7.21362 54.287C8.86122 54.0357 10.5088 53.7565 12.4078 52.9187C14.3067 52.0809 16.4569 50.6847 18.3559 48.9812C20.2827 47.2778 21.9582 45.2671 23.1311 43.5637C24.3319 41.8602 25.058 40.4919 25.784 39.0956C25.1697 37.9227 24.5832 36.7219 23.9689 35.5491C22.9915 37.5597 21.9862 39.5703 20.7295 41.4972C19.5008 43.4241 17.9928 45.2671 16.4011 46.9427C14.8093 48.6461 13.1617 50.2379 11.6258 51.4387C10.0899 52.6394 8.63782 53.4772 7.21362 54.287Z" fill="#999999"/>
<path fill-rule="evenodd" clip-rule="evenodd" d="M12.2123 54.678C13.9437 53.7844 15.675 52.8908 17.3785 51.9972C17.6577 52.1647 17.937 52.3323 18.8865 52.7791C19.808 53.2259 21.4277 53.9519 23.0473 54.315C24.667 54.678 26.3146 54.678 27.4596 54.6222C28.6045 54.5384 29.2189 54.3988 30.0008 53.7285C30.7548 53.0583 31.6484 51.8855 32.542 50.8802C33.4356 49.8469 34.3292 49.0091 36.3119 48.2831C38.2667 47.5291 41.3385 46.8589 43.1816 46.5796C45.0526 46.3004 45.7507 46.3842 46.1138 46.5238C46.4489 46.6634 46.5047 46.831 46.3092 47.1381C46.1138 47.4174 45.6949 47.8363 44.6058 48.3948C43.5167 48.9533 41.7853 49.6514 40.026 50.3775C40.5566 50.6009 41.0592 50.8243 42.0646 50.8243C43.0978 50.8243 44.6337 50.6009 46.03 50.0145C47.4542 49.428 48.7667 48.4506 50.0233 47.1102C51.252 45.7977 52.4249 44.1222 53.2627 43.1448C54.1004 42.1674 54.631 41.8882 55.0499 41.9719C55.4688 42.0836 55.8039 42.5304 55.5805 43.6195C55.3571 44.7086 54.5752 46.44 52.8438 48.6182C51.1124 50.7964 48.4036 53.4214 45.7228 55.3203C43.014 57.2192 40.3053 58.3921 38.2946 59.174C36.284 59.9838 34.9436 60.4306 32.151 60.5982C29.3864 60.7378 25.1697 60.6261 21.5952 59.5929C18.0208 58.5596 15.1165 56.6328 12.2123 54.678Z" fill="#C0AE7C"/>
<path fill-rule="evenodd" clip-rule="evenodd" d="M19.7801 49.6514C20.9809 49.2884 22.1538 48.9254 23.6059 47.7525C25.0859 46.5796 26.8452 44.569 27.9064 42.8376C28.9955 41.1062 29.4144 39.6541 29.6098 38.7046C29.7774 37.7552 29.7495 37.3084 29.6936 36.8895C28.9955 38.0344 28.3253 39.2073 27.4875 40.5477C26.6777 41.8602 25.7003 43.3403 24.5553 44.7086C23.4104 46.049 22.0979 47.2498 21.2601 48.0597C20.4503 48.8695 20.1152 49.2605 19.7801 49.6514Z" fill="#193447"/>
<path fill-rule="evenodd" clip-rule="evenodd" d="M43.1537 12.6223C44.6337 14.0186 46.1138 15.3869 47.3984 17.1742C48.6829 18.9614 49.772 21.1116 50.3584 22.6475C50.9449 24.1834 51.0007 25.0771 51.1404 26.585C51.2521 28.093 51.4196 30.2153 51.2241 32.198C51.0566 34.1807 50.4981 36.0238 49.6603 37.9786C48.8225 39.9334 47.6776 41.9999 46.5327 44.0384C47.4263 43.2007 48.3199 42.3629 49.2973 40.9666C50.3026 39.5983 51.4196 37.6993 52.2015 35.9959C52.9555 34.2645 53.3744 32.7565 53.5699 30.9414C53.7933 29.1542 53.7374 27.0598 53.5419 25.105C53.3465 23.1502 52.9834 21.3071 52.1178 19.2127C51.2241 17.1183 49.8279 14.7726 48.3199 12.9016C46.8119 11.0306 45.1922 9.60637 43.5726 8.21009C43.4329 9.66222 43.2933 11.1423 43.1537 12.6223Z" fill="#193447"/>
<path fill-rule="evenodd" clip-rule="evenodd" d="M32.0393 23.7646C32.0393 24.3789 32.0114 24.9933 32.2906 25.4959C32.5699 25.9986 33.1563 26.3895 34.5805 26.8084C35.9768 27.1994 38.2108 27.6462 39.8305 28.0651C41.4502 28.5119 42.4555 28.9587 43.2095 29.6568C43.9914 30.355 44.4941 31.2765 44.7733 31.8629C45.0526 32.4494 45.0805 32.7007 45.1084 32.952C44.6616 32.6169 44.1869 32.2818 43.5167 31.7233C42.8185 31.1648 41.897 30.4108 40.8079 29.9081C39.7188 29.4055 38.4622 29.1262 37.2055 28.9028C35.9209 28.6794 34.6084 28.484 33.6311 28.093C32.6537 27.73 31.9835 27.1715 31.6204 26.6129C31.2295 26.0544 31.1457 25.4959 31.2574 25.0212C31.3691 24.5465 31.7042 24.1555 32.0393 23.7646Z" fill="#182E43"/>
<path fill-rule="evenodd" clip-rule="evenodd" d="M36.6749 18.9055C36.4795 19.9388 36.284 20.972 36.0885 21.9773C36.2561 22.1449 36.4515 22.3124 37.0938 22.7034C37.7361 23.1223 38.8252 23.7645 39.9422 24.0997C41.0592 24.4627 42.2042 24.5185 43.0419 24.1834C43.9076 23.8762 44.4941 23.1502 44.7454 22.089C44.9967 21.0279 44.9409 19.5757 44.7454 18.2632C44.5499 16.9787 44.2148 15.8058 43.8797 14.6609C43.7959 16.3922 43.7121 18.1515 43.6004 19.2965C43.4608 20.4414 43.3212 20.972 42.9861 21.363C42.651 21.726 42.1204 21.9494 41.6177 21.9215C41.1151 21.8935 40.6403 21.6422 39.9701 21.2792C39.2999 20.8882 38.4342 20.4135 37.8478 19.9946C37.2614 19.5757 36.9821 19.2406 36.6749 18.9055Z" fill="#9A9A9A"/>
<path fill-rule="evenodd" clip-rule="evenodd" d="M13.7761 14.4654C12.8546 15.6662 11.9051 16.867 11.0953 18.1795C10.2575 19.492 9.50352 20.8882 8.94501 22.7313C8.35858 24.6023 7.96762 26.8643 7.57667 29.1542C7.57667 27.0598 7.54874 24.9653 7.80007 23.0943C8.07933 21.2233 8.60991 19.5478 9.22427 18.0398C9.83863 16.5598 10.5647 15.2194 11.2628 13.879C12.1006 14.0744 12.9384 14.2699 13.7761 14.4654Z" fill="#193447"/>
<path fill-rule="evenodd" clip-rule="evenodd" d="M13.2734 14.3816C14.4184 14.5771 16.2894 14.8284 17.574 15.0518C18.8865 15.2752 19.6125 15.4707 20.1152 15.8617C20.6178 16.2526 20.8971 16.8111 20.925 17.5093C20.9529 18.2353 20.7295 19.0731 20.0873 20.1622C19.445 21.2792 18.3838 22.6196 17.6577 23.6528C16.9596 24.6861 16.6245 25.3842 16.4569 26.2778C16.2894 27.1435 16.3173 28.1768 16.429 29.0145C16.5407 29.8802 16.7362 30.5225 16.9317 31.1927C17.0434 29.7406 17.183 28.2605 17.6857 26.8922C18.2162 25.4959 19.1378 24.1834 20.0035 22.9826C20.8692 21.7818 21.679 20.6648 22.2096 19.7991C22.7402 18.9055 22.9636 18.2912 22.9636 17.593C22.9915 16.8949 22.7681 16.113 22.1817 15.4707C21.5952 14.8284 20.6458 14.3258 19.417 14.0744C18.1604 13.7952 16.5966 13.7672 15.2003 13.7672C13.7761 13.7952 12.5195 13.8231 11.2628 13.8789C11.6817 14.0465 12.1285 14.1861 13.2734 14.3816Z" fill="#9A9A9A"/>
<path d="M24.667 17.8723C25.1914 17.8723 25.6165 17.4472 25.6165 16.9228C25.6165 16.3984 25.1914 15.9734 24.667 15.9734C24.1426 15.9734 23.7175 16.3984 23.7175 16.9228C23.7175 17.4472 24.1426 17.8723 24.667 17.8723Z" fill="#C3AC7E"/>
<path d="M25.1976 20.8045C25.7219 20.8045 26.147 20.3794 26.147 19.855C26.147 19.3306 25.7219 18.9055 25.1976 18.9055C24.6732 18.9055 24.2481 19.3306 24.2481 19.855C24.2481 20.3794 24.6732 20.8045 25.1976 20.8045Z" fill="#C3AC7E"/>
<path d="M23.4104 23.3457C23.9348 23.3457 24.3599 22.9206 24.3599 22.3962C24.3599 21.8718 23.9348 21.4467 23.4104 21.4467C22.886 21.4467 22.4609 21.8718 22.4609 22.3962C22.4609 22.9206 22.886 23.3457 23.4104 23.3457Z" fill="#C3AC7E"/>
<path d="M21.5394 26.222C22.0637 26.222 22.4888 25.7969 22.4888 25.2725C22.4888 24.7482 22.0637 24.3231 21.5394 24.3231C21.015 24.3231 20.5899 24.7482 20.5899 25.2725C20.5899 25.7969 21.015 26.222 21.5394 26.222Z" fill="#C3AC7E"/>
<path d="M19.5567 28.9587C19.9268 28.9587 20.2269 28.6586 20.2269 28.2885C20.2269 27.9183 19.9268 27.6183 19.5567 27.6183C19.1865 27.6183 18.8865 27.9183 18.8865 28.2885C18.8865 28.6586 19.1865 28.9587 19.5567 28.9587Z" fill="#C3AC7E"/>
<path d="M19.5567 32.1701C19.9268 32.1701 20.2269 31.87 20.2269 31.4999C20.2269 31.1297 19.9268 30.8297 19.5567 30.8297C19.1865 30.8297 18.8865 31.1297 18.8865 31.4999C18.8865 31.87 19.1865 32.1701 19.5567 32.1701Z" fill="#C3AC7E"/>
<path d="M20.7854 34.4879C21.0784 34.4879 21.316 34.2504 21.316 33.9573C21.316 33.6643 21.0784 33.4267 20.7854 33.4267C20.4924 33.4267 20.2548 33.6643 20.2548 33.9573C20.2548 34.2504 20.4924 34.4879 20.7854 34.4879Z" fill="#C3AC7E"/>
<path d="M37.5965 14.5492C39.8482 14.5492 41.6736 12.7238 41.6736 10.472C41.6736 8.22032 39.8482 6.39494 37.5965 6.39494C35.3448 6.39494 33.5194 8.22032 33.5194 10.472C33.5194 12.7238 35.3448 14.5492 37.5965 14.5492Z" fill="#9A9A9A"/>
<path fill-rule="evenodd" clip-rule="evenodd" d="M13.1059 12.6782C14.558 12.7061 17.2668 12.7899 19.6684 13.125C22.0979 13.4601 24.2202 14.1024 25.6444 14.7446C27.0965 15.3869 27.7947 16.0571 28.2136 16.6715C28.6324 17.3138 28.7441 17.9002 28.6045 18.7938C28.437 19.6595 28.046 20.8045 27.0128 22.3683C25.9795 23.9321 24.3319 25.9148 23.2708 27.4507C22.1817 28.9866 21.679 30.0757 21.6232 31.0252C21.5673 32.0026 21.9862 32.8403 23.55 33.3709C25.1138 33.9015 27.8505 34.1249 30.4476 34.2924C33.0446 34.4321 35.4462 34.5158 36.9263 34.7392C38.3784 34.9626 38.8811 35.3257 38.9928 35.94C39.1045 36.5823 38.8531 37.4759 38.0433 38.5371C37.2614 39.5703 35.9489 40.7991 34.1896 42.1953C32.4303 43.5916 30.2242 45.1834 28.0181 46.7751C29.1072 46.5517 30.1963 46.3283 31.6763 45.7139C33.1843 45.0996 35.1111 44.1222 37.038 42.7259C38.9928 41.3576 40.9475 39.5703 42.0925 38.1461C43.2095 36.694 43.5167 35.6049 43.405 34.6834C43.2933 33.7898 42.7627 33.0916 41.4781 32.4214C40.1936 31.7512 38.1829 31.1089 36.2281 30.5784C34.3013 30.0478 32.4024 29.601 31.2574 29.21C30.1125 28.7911 29.6936 28.4002 29.3306 27.8137C28.9675 27.2273 28.6604 26.4454 28.6324 25.7193C28.5766 25.0212 28.8279 24.4348 29.7494 23.206C30.6989 22.0053 32.3465 20.1622 33.296 18.7938C34.2175 17.3976 34.413 16.5039 34.0779 15.6662C33.7149 14.8563 32.8212 14.1303 31.2016 13.4321C29.5819 12.734 27.2082 12.0638 24.8904 11.7008C22.6005 11.3098 20.3386 11.254 18.0487 11.1981C19.5008 10.472 20.925 9.74599 22.2375 9.2154C23.5221 8.68482 24.7229 8.34971 26.3146 8.26594C27.9064 8.15424 29.917 8.26594 31.9276 8.34971C32.9609 7.09307 33.9941 5.83643 35.0553 4.57978C32.1231 4.52393 29.2189 4.46808 26.5939 4.83111C23.9689 5.19414 21.6232 6.00398 19.7242 6.98137C17.8253 7.95876 16.3732 9.1037 15.3958 9.94146C14.4184 10.8072 13.9437 11.3377 13.5527 11.617C13.1338 11.8962 12.7987 11.8683 12.3798 11.8683C11.961 11.8962 11.5141 11.9242 11.2907 12.0359C11.0673 12.1755 11.1232 12.3989 11.2628 12.5106C11.4024 12.6223 11.6538 12.6502 13.1059 12.6782Z" fill="#193447"/>
<path fill-rule="evenodd" clip-rule="evenodd" d="M64.8517 10.8909V6.25532H85.0697C88.5883 6.25532 91.4088 6.64627 93.4753 7.42819C95.5417 8.23802 97.2173 9.66222 98.5298 11.7287C99.8143 13.8231 100.457 16.5319 100.457 19.9109C100.457 23.1781 99.8981 25.859 98.7811 27.9534C97.6361 30.0199 96.0165 31.5278 93.8662 32.3935C91.716 33.2871 88.7838 33.7339 85.0697 33.7339H69.4594V54.3988H64.9634V33.7339V29.0983H85.0697C88.1136 29.0983 90.3476 28.8191 91.7997 28.2326C93.2519 27.6741 94.3689 26.7247 95.1229 25.3284C95.9048 23.96 96.2957 22.2845 96.2957 20.3018C96.2957 16.9228 95.5417 14.4933 93.9779 13.0412C92.442 11.617 89.4819 10.8909 85.0697 10.8909H64.8517Z" fill="#193447"/>
<path fill-rule="evenodd" clip-rule="evenodd" d="M124.724 55.0131L127.851 51.8855L106.293 30.327L127.851 8.7686L124.724 5.64095L100.177 30.1874L100.317 30.327L100.177 30.4667L124.724 55.0131Z" fill="#193447"/>
</g>
<defs>
<clipPath id="clip0_10_6">
<rect width="128" height="60.654" fill="white"/>
</clipPath>
</defs>
</svg>
