<svg width="127" height="60" viewBox="0 0 127 60" fill="none" xmlns="http://www.w3.org/2000/svg">
<path fill-rule="evenodd" clip-rule="evenodd" d="M38.4344 1.63339C36.5609 1.3295 34.6875 1.05324 32.263 1.1085C29.8385 1.13612 26.8631 1.55051 24.0253 2.26879C21.2151 3.01469 18.5427 4.06448 16.0356 5.66679C13.5285 7.29673 11.1591 9.47919 9.17546 11.7721C7.1918 14.0927 5.56631 16.4962 4.60203 18.8444C3.6102 21.1926 3.27959 23.4856 3.14184 25.9719C3.00408 28.4859 3.05919 31.2209 3.5551 33.5691C4.02346 35.8897 4.93264 37.8235 5.89692 39.6192C6.88874 41.4149 7.93567 43.1001 9.23056 44.6748C10.4979 46.2495 12.0407 47.7136 13.556 49.1778C12.206 50.2552 10.8561 51.3326 9.50607 52.4101C9.17546 52.0786 8.84485 51.747 7.74282 50.3657C6.64079 48.9844 4.73978 46.5533 3.33469 43.9565C1.95716 41.332 1.04798 38.5418 0.524515 35.7792C0.0286013 32.989 -0.109153 30.254 0.0837028 27.519C0.276558 24.784 0.772472 22.0767 1.57144 19.6732C2.37042 17.2697 3.5 15.2254 4.71223 13.4021C5.95202 11.5511 7.27445 9.94883 8.7622 8.31889C10.2775 6.68896 11.9305 5.05902 14.0795 3.7606C16.256 2.46217 18.9009 1.46763 21.6284 0.887487C24.3559 0.279714 27.1386 0.0587053 29.3702 0.00345326C31.6293 -0.0241728 33.3375 0.113957 34.7426 0.417844C36.1752 0.72173 37.3048 1.19137 38.4344 1.63339Z" fill="#C0AE7C"/>
<path fill-rule="evenodd" clip-rule="evenodd" d="M6.95776 53.7085C8.58326 53.4599 10.2088 53.1836 12.0822 52.3549C13.9557 51.5261 16.0771 50.1448 17.9505 48.4596C19.8515 46.7744 21.5046 44.7853 22.6617 43.1001C23.8464 41.4149 24.5627 40.0613 25.279 38.68C24.6729 37.5197 24.0943 36.3317 23.4882 35.1714C22.5239 37.1605 21.5321 39.1496 20.2923 41.0558C19.0801 42.962 17.5924 44.7853 16.022 46.4429C14.4516 48.1281 12.8261 49.7027 11.3108 50.8907C9.79549 52.0786 8.36285 52.9074 6.95776 53.7085Z" fill="white"/>
<path fill-rule="evenodd" clip-rule="evenodd" d="M11.8893 54.0953C13.5974 53.2112 15.3056 52.3272 16.9862 51.4432C17.2617 51.6089 17.5372 51.7747 18.4739 52.2167C19.3831 52.6587 20.981 53.377 22.579 53.7361C24.1769 54.0953 25.8024 54.0953 26.932 54.04C28.0616 53.9571 28.6677 53.819 29.4391 53.156C30.183 52.4929 31.0646 51.3327 31.9462 50.3381C32.8279 49.316 33.7095 48.4872 35.6656 47.7689C37.5942 47.023 40.6247 46.36 42.4431 46.0837C44.289 45.8074 44.9778 45.8903 45.3359 46.0285C45.6665 46.1666 45.7216 46.3323 45.5288 46.6362C45.3359 46.9125 44.9227 47.3269 43.8482 47.8794C42.7737 48.4319 41.0655 49.1226 39.3298 49.8408C39.8533 50.0619 40.3492 50.2829 41.3411 50.2829C42.3604 50.2829 43.8757 50.0619 45.2533 49.4817C46.6584 48.9016 47.9532 47.9347 49.193 46.6086C50.4053 45.3102 51.5624 43.6526 52.3889 42.6857C53.2154 41.7188 53.7389 41.4425 54.1522 41.5254C54.5654 41.6359 54.896 42.0779 54.6756 43.1553C54.4552 44.2328 53.6838 45.9456 51.9757 48.1004C50.2675 50.2552 47.5951 52.8521 44.9502 54.7307C42.2778 56.6092 39.6054 57.7695 37.6217 58.5431C35.638 59.3442 34.3156 59.7862 31.5605 59.952C28.833 60.0901 24.6728 59.9796 21.1463 58.9574C17.6198 57.9353 14.7546 56.0291 11.8893 54.0953Z" fill="#C0AE7C"/>
<path fill-rule="evenodd" clip-rule="evenodd" d="M19.3556 49.1226C20.5403 48.7634 21.6974 48.4043 23.13 47.244C24.5902 46.0837 26.3259 44.0946 27.3729 42.3818C28.4473 40.669 28.8606 39.2324 29.0535 38.2932C29.2188 37.3539 29.1912 36.9119 29.1361 36.4975C28.4473 37.6301 27.7861 38.7904 26.9596 40.1165C26.1606 41.4149 25.1964 42.8791 24.0668 44.2328C22.9372 45.5588 21.6423 46.7467 20.8158 47.5479C20.0168 48.349 19.6862 48.7358 19.3556 49.1226Z" fill="#193447"/>
<path fill-rule="evenodd" clip-rule="evenodd" d="M42.4156 12.4905C43.8758 13.8718 45.336 15.2254 46.6034 16.9935C47.8707 18.7616 48.9452 20.8888 49.5237 22.4082C50.1023 23.9276 50.1574 24.8117 50.2952 26.3035C50.4054 27.7953 50.5707 29.8949 50.3778 31.8563C50.2125 33.8178 49.6615 35.6411 48.835 37.5749C48.0085 39.5087 46.8789 41.5531 45.7493 43.5698C46.6309 42.741 47.5125 41.9122 48.4768 40.5309C49.4686 39.1772 50.5707 37.2987 51.3421 35.6135C52.086 33.9007 52.4992 32.4088 52.6921 30.6132C52.9125 28.8451 52.8574 26.7731 52.6645 24.8393C52.4717 22.9055 52.1135 21.0822 51.2594 19.0102C50.3778 16.9383 49.0003 14.6177 47.5125 12.7667C46.0248 10.9158 44.4269 9.50685 42.8289 8.12555C42.6912 9.5621 42.5534 11.0263 42.4156 12.4905Z" fill="#193447"/>
<path fill-rule="evenodd" clip-rule="evenodd" d="M31.4504 23.5132C31.4504 24.121 31.4228 24.7288 31.6983 25.226C31.9739 25.7233 32.5524 26.1101 33.9575 26.5245C35.335 26.9112 37.5391 27.3532 39.1371 27.7676C40.735 28.2096 41.7268 28.6517 42.4707 29.3423C43.2421 30.033 43.738 30.9446 44.0135 31.5248C44.289 32.1049 44.3166 32.3535 44.3441 32.6022C43.9033 32.2707 43.435 31.9392 42.7738 31.3866C42.085 30.8341 41.1758 30.0882 40.1013 29.5909C39.0268 29.0937 37.7871 28.8174 36.5473 28.5964C35.2799 28.3754 33.9851 28.182 33.0208 27.7953C32.0565 27.4361 31.3953 26.8836 31.0371 26.3311C30.6514 25.7786 30.5688 25.226 30.679 24.7564C30.7892 24.2867 31.1198 23.9 31.4504 23.5132Z" fill="#182E43"/>
<path fill-rule="evenodd" clip-rule="evenodd" d="M36.0238 18.7063C35.8309 19.7285 35.638 20.7506 35.4452 21.7452C35.6105 21.9109 35.8034 22.0767 36.437 22.4634C37.0707 22.8778 38.1452 23.5132 39.2472 23.8447C40.3492 24.2039 41.4788 24.2591 42.3053 23.9276C43.1594 23.6237 43.738 22.9055 43.9859 21.8557C44.2339 20.8059 44.1788 19.3693 43.9859 18.0709C43.7931 16.8001 43.4625 15.6398 43.1319 14.5071C43.0492 16.22 42.9666 17.9604 42.8563 19.0931C42.7186 20.2257 42.5808 20.7506 42.2502 21.1374C41.9196 21.4965 41.3962 21.7175 40.9002 21.6899C40.4043 21.6623 39.936 21.4137 39.2747 21.0545C38.6135 20.6677 37.7595 20.1981 37.1809 19.7837C36.6023 19.3693 36.3268 19.0378 36.0238 18.7063Z" fill="white"/>
<path fill-rule="evenodd" clip-rule="evenodd" d="M13.4322 14.3138C12.5231 15.5017 11.5863 16.6896 10.7874 17.988C9.96085 19.2864 9.21698 20.6678 8.66596 22.4911C8.0874 24.342 7.70169 26.5797 7.31597 28.8451C7.31597 26.7731 7.28842 24.7012 7.53638 22.8502C7.81189 20.9993 8.33535 19.3417 8.94147 17.8499C9.54759 16.3857 10.2639 15.0597 10.9527 13.7336C11.7792 13.927 12.6057 14.1204 13.4322 14.3138Z" fill="#193447"/>
<path fill-rule="evenodd" clip-rule="evenodd" d="M12.9363 14.2309C14.0659 14.4242 15.9118 14.6729 17.1791 14.8939C18.474 15.1149 19.1903 15.3083 19.6862 15.695C20.1821 16.0818 20.4577 16.6343 20.4852 17.325C20.5128 18.0432 20.2923 18.872 19.6587 19.9494C19.025 21.0545 17.9781 22.3805 17.2618 23.4027C16.573 24.4249 16.2424 25.1155 16.0771 25.9995C15.9118 26.856 15.9393 27.8781 16.0495 28.7069C16.1597 29.5633 16.3526 30.1987 16.5454 30.8617C16.6556 29.4252 16.7934 27.961 17.2893 26.6073C17.8128 25.226 18.722 23.9276 19.576 22.7397C20.4301 21.5518 21.2291 20.4467 21.7525 19.5903C22.276 18.7063 22.4964 18.0985 22.4964 17.4078C22.524 16.7172 22.3036 15.9437 21.725 15.3083C21.1464 14.6729 20.2097 14.1756 18.9975 13.927C17.7577 13.6507 16.2148 13.6231 14.8373 13.6231C13.4322 13.6507 12.1924 13.6783 10.9526 13.7336C11.3659 13.8993 11.8067 14.0375 12.9363 14.2309Z" fill="#9A9A9A"/>
<path d="M24.177 17.6841C24.6943 17.6841 25.1137 17.2636 25.1137 16.7449C25.1137 16.2261 24.6943 15.8056 24.177 15.8056C23.6596 15.8056 23.2402 16.2261 23.2402 16.7449C23.2402 17.2636 23.6596 17.6841 24.177 17.6841Z" fill="#C3AC7E"/>
<path d="M24.7004 20.5849C25.2177 20.5849 25.6371 20.1643 25.6371 19.6456C25.6371 19.1268 25.2177 18.7063 24.7004 18.7063C24.1831 18.7063 23.7637 19.1268 23.7637 19.6456C23.7637 20.1643 24.1831 20.5849 24.7004 20.5849Z" fill="#C3AC7E"/>
<path d="M22.9372 23.0988C23.4546 23.0988 23.8739 22.6783 23.8739 22.1595C23.8739 21.6408 23.4546 21.2202 22.9372 21.2202C22.4199 21.2202 22.0005 21.6408 22.0005 22.1595C22.0005 22.6783 22.4199 23.0988 22.9372 23.0988Z" fill="#C3AC7E"/>
<path d="M21.0914 25.9443C21.6087 25.9443 22.0281 25.5238 22.0281 25.0051C22.0281 24.4863 21.6087 24.0658 21.0914 24.0658C20.574 24.0658 20.1547 24.4863 20.1547 25.0051C20.1547 25.5238 20.574 25.9443 21.0914 25.9443Z" fill="#C3AC7E"/>
<path d="M19.1351 28.6517C19.5003 28.6517 19.7963 28.3548 19.7963 27.9886C19.7963 27.6225 19.5003 27.3256 19.1351 27.3256C18.7699 27.3256 18.4739 27.6225 18.4739 27.9886C18.4739 28.3548 18.7699 28.6517 19.1351 28.6517Z" fill="#C3AC7E"/>
<path d="M19.1351 31.8286C19.5003 31.8286 19.7963 31.5318 19.7963 31.1656C19.7963 30.7994 19.5003 30.5026 19.1351 30.5026C18.7699 30.5026 18.4739 30.7994 18.4739 31.1656C18.4739 31.5318 18.7699 31.8286 19.1351 31.8286Z" fill="#C3AC7E"/>
<path d="M20.3474 34.1216C20.6365 34.1216 20.8709 33.8866 20.8709 33.5967C20.8709 33.3068 20.6365 33.0718 20.3474 33.0718C20.0583 33.0718 19.824 33.3068 19.824 33.5967C19.824 33.8866 20.0583 34.1216 20.3474 34.1216Z" fill="#C3AC7E"/>
<path d="M36.9331 14.3966C39.1546 14.3966 40.9555 12.5908 40.9555 10.3632C40.9555 8.13562 39.1546 6.3298 36.9331 6.3298C34.7115 6.3298 32.9106 8.13562 32.9106 10.3632C32.9106 12.5908 34.7115 14.3966 36.9331 14.3966Z" fill="white"/>
<path fill-rule="evenodd" clip-rule="evenodd" d="M12.771 12.5457C14.2036 12.5733 16.8761 12.6562 19.2454 12.9877C21.6423 13.3192 23.7362 13.9546 25.1413 14.59C26.5739 15.2254 27.2627 15.8884 27.676 16.4962C28.0892 17.1316 28.1994 17.7118 28.0617 18.5958C27.8964 19.4522 27.5107 20.5849 26.4913 22.1319C25.4719 23.679 23.8464 25.6404 22.7995 27.1599C21.725 28.6793 21.2291 29.7567 21.174 30.696C21.1189 31.6629 21.5321 32.4917 23.075 33.0166C24.6178 33.5415 27.3178 33.7625 29.88 33.9282C32.4422 34.0664 34.8116 34.1492 36.2718 34.3703C37.7044 34.5913 38.2004 34.9504 38.3106 35.5582C38.4208 36.1936 38.1728 37.0776 37.3738 38.1274C36.6024 39.1496 35.3075 40.3651 33.5718 41.7464C31.8361 43.1277 29.6596 44.7024 27.4831 46.2771C28.5576 46.0561 29.6321 45.8351 31.0923 45.2273C32.58 44.6195 34.481 43.6526 36.382 42.2713C38.3106 40.9176 40.2391 39.1496 41.3687 37.7406C42.4707 36.3041 42.7738 35.2267 42.6636 34.315C42.5534 33.431 42.0299 32.7403 40.7626 32.0773C39.4952 31.4143 37.5116 30.7789 35.583 30.254C33.682 29.7291 31.8086 29.2871 30.679 28.9003C29.5494 28.4859 29.1361 28.0991 28.778 27.519C28.4198 26.9389 28.1168 26.1653 28.0892 25.447C28.0341 24.7564 28.2821 24.1762 29.1913 22.9607C30.128 21.7728 31.7535 19.9495 32.6902 18.5958C33.5994 17.2145 33.7922 16.3304 33.4616 15.5017C33.1035 14.7005 32.2218 13.9822 30.6239 13.2916C29.0259 12.6009 26.6841 11.9379 24.3974 11.5788C22.1383 11.192 19.9066 11.1368 17.6475 11.0815C19.0801 10.3632 20.4852 9.64494 21.7801 9.12005C23.0474 8.59515 24.2321 8.26364 25.8025 8.18076C27.3729 8.07026 29.3566 8.18076 31.3402 8.26364C32.3596 7.02047 33.379 5.7773 34.4259 4.53412C31.5331 4.47887 28.6678 4.42362 26.078 4.78276C23.4882 5.1419 21.174 5.94305 19.3005 6.90997C17.4271 7.87688 15.9944 9.00954 15.0302 9.83833C14.0659 10.6947 13.5975 11.2196 13.2118 11.4959C12.7985 11.7721 12.4679 11.7445 12.0547 11.7445C11.6414 11.7722 11.2006 11.7998 10.9802 11.9103C10.7598 12.0484 10.8149 12.2694 10.9526 12.3799C11.0904 12.4904 11.3384 12.5181 12.771 12.5457Z" fill="white"/>
<path fill-rule="evenodd" clip-rule="evenodd" d="M63.8226 10.7776V6.19171H83.7693C87.2407 6.19171 90.0234 6.57848 92.0621 7.35201C94.1009 8.15316 95.7539 9.56209 97.0488 11.6064C98.3161 13.6784 98.9498 16.3581 98.9498 19.7008C98.9498 22.9331 98.3988 25.5852 97.2968 27.6571C96.1672 29.7015 94.5692 31.1933 92.4478 32.0497C90.3264 32.9337 87.4336 33.3757 83.7693 33.3757H68.3684V53.819H63.9328V33.3757V28.7898H83.7693C86.7724 28.7898 88.9764 28.5136 90.4091 27.9334C91.8417 27.3809 92.9437 26.4416 93.6876 25.0603C94.459 23.7066 94.8447 22.0491 94.8447 20.0876C94.8447 16.7449 94.1009 14.3414 92.558 12.9048C91.0427 11.4959 88.1224 10.7776 83.7693 10.7776H63.8226Z" fill="white"/>
<path fill-rule="evenodd" clip-rule="evenodd" d="M122.891 54.4268L125.977 51.3327L104.708 30.0053L125.977 8.67804L122.891 5.58392L98.6743 29.8672L98.8121 30.0053L98.6743 30.1435L122.891 54.4268Z" fill="white" stroke="#373435" stroke-width="0.184291"/>
</svg>
