<svg width="60" height="60" viewBox="0 0 60 60" fill="none" xmlns="http://www.w3.org/2000/svg">
<path fill-rule="evenodd" clip-rule="evenodd" d="M42.1229 1.63339C40.0696 1.3295 38.0164 1.05324 35.3592 1.1085C32.7021 1.13612 29.4411 1.55051 26.331 2.26879C23.2511 3.01469 20.3222 4.06448 17.5745 5.66679C14.8268 7.29673 12.23 9.47919 10.056 11.7721C7.88199 14.0927 6.10049 16.4962 5.04368 18.8444C3.95667 21.1926 3.59433 23.4856 3.44336 25.9719C3.29238 28.4859 3.35277 31.2209 3.89628 33.5691C4.40959 35.8897 5.40601 37.8235 6.46283 39.6192C7.54984 41.4149 8.69724 43.1001 10.1164 44.6748C11.5054 46.2495 13.1963 47.7136 14.857 49.1778C13.3774 50.2552 11.8979 51.3326 10.4183 52.4101C10.056 52.0786 9.69367 51.747 8.48588 50.3657C7.27809 48.9844 5.19465 46.5533 3.65472 43.9565C2.14498 41.332 1.14855 38.5418 0.574852 35.7792C0.0313461 32.989 -0.119628 30.254 0.0917356 27.519C0.303099 24.784 0.846605 22.0767 1.72225 19.6732C2.5979 17.2697 3.83589 15.2254 5.16446 13.4021C6.52322 11.5511 7.97257 9.94883 9.60309 8.31889C11.2638 6.68896 13.0755 5.05902 15.4307 3.7606C17.8161 2.46217 20.7148 1.46763 23.704 0.887487C26.6933 0.279714 29.743 0.0587053 32.1888 0.00345326C34.6647 -0.0241728 36.5368 0.113957 38.0768 0.417844C39.6469 0.72173 40.8849 1.19137 42.1229 1.63339Z" fill="#C0AE7C"/>
<path fill-rule="evenodd" clip-rule="evenodd" d="M7.62549 53.7085C9.40698 53.4599 11.1885 53.1836 13.2417 52.3549C15.295 51.5261 17.62 50.1448 19.6732 48.4596C21.7566 46.7744 23.5683 44.7853 24.8365 43.1001C26.1349 41.4149 26.9199 40.0613 27.705 38.68C27.0407 37.5197 26.4066 36.3317 25.7423 35.1714C24.6855 37.1605 23.5985 39.1496 22.2398 41.0558C20.9112 42.962 19.2807 44.7853 17.5596 46.4429C15.8385 48.1281 14.057 49.7027 12.3963 50.8907C10.7355 52.0786 9.16542 52.9074 7.62549 53.7085Z" fill="#999999"/>
<path fill-rule="evenodd" clip-rule="evenodd" d="M13.0303 54.0953C14.9023 53.2112 16.7744 52.3272 18.6163 51.4432C18.9183 51.6089 19.2202 51.7747 20.2468 52.2167C21.2433 52.6587 22.9945 53.377 24.7458 53.7361C26.4971 54.0953 28.2786 54.0953 29.5166 54.04C30.7546 53.9571 31.4189 53.819 32.2643 53.156C33.0796 52.4929 34.0458 51.3327 35.0121 50.3381C35.9783 49.316 36.9445 48.4872 39.0884 47.7689C41.202 47.023 44.5234 46.36 46.5163 46.0837C48.5393 45.8074 49.2942 45.8903 49.6867 46.0285C50.0491 46.1666 50.1094 46.3323 49.8981 46.6362C49.6867 46.9125 49.2338 47.3269 48.0562 47.8794C46.8786 48.4319 45.0065 49.1226 43.1043 49.8408C43.678 50.0619 44.2215 50.2829 45.3085 50.2829C46.4257 50.2829 48.0864 50.0619 49.5961 49.4817C51.1361 48.9016 52.5552 47.9347 53.914 46.6086C55.2426 45.3102 56.5107 43.6526 57.4166 42.6857C58.3224 41.7188 58.8961 41.4425 59.349 41.5254C59.802 41.6359 60.1643 42.0779 59.9227 43.1553C59.6812 44.2328 58.8357 45.9456 56.9637 48.1004C55.0916 50.2552 52.1627 52.8521 49.264 54.7307C46.3351 56.6092 43.4062 57.7695 41.2322 58.5431C39.0582 59.3442 37.6088 59.7862 34.5893 59.952C31.6001 60.0901 27.0406 59.9796 23.1757 58.9574C19.3108 57.9353 16.1705 56.0291 13.0303 54.0953Z" fill="#C0AE7C"/>
<path fill-rule="evenodd" clip-rule="evenodd" d="M21.2131 49.1226C22.5115 48.7634 23.7797 48.4043 25.3498 47.244C26.9501 46.0837 28.8524 44.0946 29.9998 42.3818C31.1774 40.669 31.6303 39.2324 31.8417 38.2932C32.0229 37.3539 31.9927 36.9119 31.9323 36.4975C31.1774 37.6301 30.4527 38.7904 29.5469 40.1165C28.6712 41.4149 27.6144 42.8791 26.3764 44.2328C25.1385 45.5588 23.7193 46.7467 22.8135 47.5479C21.9378 48.349 21.5755 48.7358 21.2131 49.1226Z" fill="#193447"/>
<path fill-rule="evenodd" clip-rule="evenodd" d="M46.4862 12.4905C48.0865 13.8718 49.6869 15.2254 51.0758 16.9935C52.4648 18.7616 53.6424 20.8888 54.2765 22.4082C54.9105 23.9276 54.9709 24.8117 55.1219 26.3035C55.2427 27.7953 55.4239 29.8949 55.2125 31.8563C55.0313 33.8178 54.4274 35.6411 53.5216 37.5749C52.6157 39.5087 51.3778 41.5531 50.1398 43.5698C51.106 42.741 52.0722 41.9122 53.1291 40.5309C54.2161 39.1772 55.4239 37.2987 56.2693 35.6135C57.0846 33.9007 57.5375 32.4088 57.7489 30.6132C57.9904 28.8451 57.93 26.7731 57.7187 24.8393C57.5073 22.9055 57.1148 21.0822 56.1787 19.0102C55.2125 16.9383 53.7028 14.6177 52.0722 12.7667C50.4417 10.9158 48.6904 9.50685 46.9391 8.12555C46.7882 9.5621 46.6372 11.0263 46.4862 12.4905Z" fill="#193447"/>
<path fill-rule="evenodd" clip-rule="evenodd" d="M34.4687 23.5132C34.4687 24.121 34.4385 24.7288 34.7404 25.226C35.0424 25.7233 35.6765 26.1101 37.2164 26.5245C38.7261 26.9112 41.1417 27.3532 42.893 27.7676C44.6443 28.2096 45.7313 28.6517 46.5466 29.3423C47.392 30.033 47.9355 30.9446 48.2375 31.5248C48.5394 32.1049 48.5696 32.3535 48.5998 32.6022C48.1167 32.2707 47.6034 31.9392 46.8787 31.3866C46.1239 30.8341 45.1274 30.0882 43.9498 29.5909C42.7722 29.0937 41.4135 28.8174 40.0547 28.5964C38.6657 28.3754 37.2466 28.182 36.1898 27.7953C35.133 27.4361 34.4083 26.8836 34.0157 26.3311C33.593 25.7786 33.5024 25.226 33.6232 24.7564C33.744 24.2867 34.1063 23.9 34.4687 23.5132Z" fill="#182E43"/>
<path fill-rule="evenodd" clip-rule="evenodd" d="M39.4809 18.7063C39.2695 19.7285 39.0582 20.7506 38.8468 21.7452C39.028 21.9109 39.2393 22.0767 39.9338 22.4634C40.6283 22.8778 41.8059 23.5132 43.0137 23.8447C44.2215 24.2039 45.4595 24.2591 46.3653 23.9276C47.3013 23.6237 47.9354 22.9055 48.2072 21.8557C48.4789 20.8059 48.4185 19.3693 48.2072 18.0709C47.9958 16.8001 47.6335 15.6398 47.2711 14.5071C47.1806 16.22 47.09 17.9604 46.9692 19.0931C46.8182 20.2257 46.6672 20.7506 46.3049 21.1374C45.9426 21.4965 45.3689 21.7175 44.8254 21.6899C44.2819 21.6623 43.7685 21.4137 43.0439 21.0545C42.3192 20.6677 41.3832 20.1981 40.7491 19.7837C40.115 19.3693 39.813 19.0378 39.4809 18.7063Z" fill="#9A9A9A"/>
<path fill-rule="evenodd" clip-rule="evenodd" d="M14.7213 14.3138C13.7249 15.5017 12.6983 16.6896 11.8226 17.988C10.9168 19.2864 10.1015 20.6678 9.49763 22.4911C8.86354 24.342 8.44081 26.5797 8.01809 28.8451C8.01809 26.7731 7.98789 24.7012 8.25965 22.8502C8.56159 20.9993 9.13529 19.3417 9.79958 17.8499C10.4639 16.3857 11.2489 15.0597 12.0038 13.7336C12.9096 13.927 13.8155 14.1204 14.7213 14.3138Z" fill="#193447"/>
<path fill-rule="evenodd" clip-rule="evenodd" d="M14.1778 14.2309C15.4158 14.4242 17.4388 14.6729 18.8278 14.8939C20.247 15.1149 21.032 15.3083 21.5755 15.695C22.119 16.0818 22.421 16.6343 22.4512 17.325C22.4814 18.0432 22.2398 18.872 21.5453 19.9494C20.8509 21.0545 19.7035 22.3805 18.9184 23.4027C18.1635 24.4249 17.8012 25.1155 17.62 25.9995C17.4388 26.856 17.469 27.8781 17.5898 28.7069C17.7106 29.5633 17.922 30.1987 18.1333 30.8617C18.2541 29.4252 18.4051 27.961 18.9486 26.6073C19.5223 25.226 20.5187 23.9276 21.4547 22.7397C22.3908 21.5518 23.2664 20.4467 23.8401 19.5903C24.4138 18.7063 24.6554 18.0985 24.6554 17.4078C24.6856 16.7172 24.444 15.9437 23.8099 15.3083C23.1758 14.6729 22.1492 14.1756 20.8207 13.927C19.4619 13.6507 17.771 13.6231 16.2612 13.6231C14.7213 13.6507 13.3625 13.6783 12.0038 13.7336C12.4567 13.8993 12.9398 14.0375 14.1778 14.2309Z" fill="#9A9A9A"/>
<path d="M26.4972 17.6841C27.0642 17.6841 27.5238 17.2636 27.5238 16.7449C27.5238 16.2261 27.0642 15.8056 26.4972 15.8056C25.9302 15.8056 25.4706 16.2261 25.4706 16.7449C25.4706 17.2636 25.9302 17.6841 26.4972 17.6841Z" fill="#C3AC7E"/>
<path d="M27.0708 20.5849C27.6378 20.5849 28.0974 20.1643 28.0974 19.6456C28.0974 19.1268 27.6378 18.7063 27.0708 18.7063C26.5038 18.7063 26.0442 19.1268 26.0442 19.6456C26.0442 20.1643 26.5038 20.5849 27.0708 20.5849Z" fill="#C3AC7E"/>
<path d="M25.1384 23.0988C25.7054 23.0988 26.1651 22.6783 26.1651 22.1595C26.1651 21.6408 25.7054 21.2202 25.1384 21.2202C24.5715 21.2202 24.1118 21.6408 24.1118 22.1595C24.1118 22.6783 24.5715 23.0988 25.1384 23.0988Z" fill="#C3AC7E"/>
<path d="M23.1155 25.9443C23.6825 25.9443 24.1421 25.5238 24.1421 25.0051C24.1421 24.4863 23.6825 24.0658 23.1155 24.0658C22.5485 24.0658 22.0889 24.4863 22.0889 25.0051C22.0889 25.5238 22.5485 25.9443 23.1155 25.9443Z" fill="#C3AC7E"/>
<path d="M20.9715 28.6517C21.3717 28.6517 21.6962 28.3548 21.6962 27.9886C21.6962 27.6225 21.3717 27.3256 20.9715 27.3256C20.5713 27.3256 20.2468 27.6225 20.2468 27.9886C20.2468 28.3548 20.5713 28.6517 20.9715 28.6517Z" fill="#C3AC7E"/>
<path d="M20.9715 31.8286C21.3717 31.8286 21.6962 31.5318 21.6962 31.1656C21.6962 30.7994 21.3717 30.5026 20.9715 30.5026C20.5713 30.5026 20.2468 30.7994 20.2468 31.1656C20.2468 31.5318 20.5713 31.8286 20.9715 31.8286Z" fill="#C3AC7E"/>
<path d="M22.3001 34.1216C22.617 34.1216 22.8738 33.8866 22.8738 33.5967C22.8738 33.3068 22.617 33.0718 22.3001 33.0718C21.9833 33.0718 21.7264 33.3068 21.7264 33.5967C21.7264 33.8866 21.9833 34.1216 22.3001 34.1216Z" fill="#C3AC7E"/>
<path d="M40.4774 14.3966C42.9121 14.3966 44.8858 12.5908 44.8858 10.3632C44.8858 8.13562 42.9121 6.3298 40.4774 6.3298C38.0427 6.3298 36.069 8.13562 36.069 10.3632C36.069 12.5908 38.0427 14.3966 40.4774 14.3966Z" fill="#9A9A9A"/>
<path fill-rule="evenodd" clip-rule="evenodd" d="M13.9966 12.5457C15.5668 12.5733 18.4957 12.6562 21.0924 12.9877C23.7193 13.3192 26.0141 13.9546 27.5541 14.59C29.1242 15.2254 29.8791 15.8884 30.332 16.4962C30.7849 17.1316 30.9057 17.7118 30.7547 18.5958C30.5736 19.4522 30.1508 20.5849 29.0336 22.1319C27.9164 23.679 26.1349 25.6404 24.9875 27.1599C23.8099 28.6793 23.2664 29.7567 23.206 30.696C23.1456 31.6629 23.5986 32.4917 25.2895 33.0166C26.9804 33.5415 29.9395 33.7625 32.7476 33.9282C35.5557 34.0664 38.1524 34.1492 39.7528 34.3703C41.3229 34.5913 41.8664 34.9504 41.9872 35.5582C42.108 36.1936 41.8362 37.0776 40.9606 38.1274C40.1151 39.1496 38.696 40.3651 36.7937 41.7464C34.8914 43.1277 32.506 44.7024 30.1206 46.2771C31.2982 46.0561 32.4758 45.8351 34.0762 45.2273C35.7067 44.6195 37.7901 43.6526 39.8735 42.2713C41.9872 40.9176 44.1008 39.1496 45.3388 37.7406C46.5466 36.3041 46.8787 35.2267 46.758 34.315C46.6372 33.431 46.0635 32.7403 44.6745 32.0773C43.2856 31.4143 41.1115 30.7789 38.9979 30.254C36.9145 29.7291 34.8612 29.2871 33.6232 28.9003C32.3852 28.4859 31.9323 28.0991 31.5398 27.519C31.1473 26.9388 30.8151 26.1653 30.7849 25.447C30.7245 24.7564 30.9963 24.1762 31.9927 22.9607C33.0193 21.7728 34.8008 19.9495 35.8274 18.5958C36.8239 17.2145 37.0352 16.3304 36.6729 15.5017C36.2804 14.7005 35.3141 13.9822 33.5628 13.2916C31.8115 12.6009 29.245 11.9379 26.7388 11.5788C24.2629 11.192 21.8171 11.1368 19.3411 11.0815C20.9112 10.3632 22.4512 9.64494 23.8703 9.12005C25.2593 8.59515 26.5577 8.26364 28.2788 8.18076C29.9999 8.07026 32.1739 8.18076 34.3479 8.26364C35.4651 7.02047 36.5823 5.7773 37.7297 4.53412C34.5593 4.47887 31.419 4.42362 28.5807 4.78276C25.7424 5.1419 23.206 5.94305 21.1528 6.90997C19.0995 7.87688 17.5294 9.00954 16.4726 9.83833C15.4158 10.6947 14.9025 11.2196 14.4797 11.4959C14.0268 11.7721 13.6645 11.7445 13.2116 11.7445C12.7586 11.7721 12.2755 11.7998 12.034 11.9103C11.7924 12.0484 11.8528 12.2694 12.0038 12.3799C12.1548 12.4904 12.4265 12.5181 13.9966 12.5457Z" fill="#193447"/>
</svg>
